<svg id="Iconly_Light-outline_Profile" data-name="Iconly/Light-outline/Profile" xmlns="http://www.w3.org/2000/svg" width="24.973" height="24.973" viewBox="0 0 24.973 24.973">
  <rect id="Iconly_Light-outline_Profile_Background_" data-name="Iconly/Light-outline/Profile (Background)" width="24.973" height="24.973" fill="none"/>
  <g id="Profile" transform="translate(4.162 2.081)">
    <path id="Profile-2" data-name="Profile" d="M6.946,20.773c-.125,0-.214,0-.3,0l-.15-.006a2.3,2.3,0,0,1-.42-.049,16.022,16.022,0,0,1-2.427-.352l-.266-.056a4.12,4.12,0,0,1-3.1-1.979A3.055,3.055,0,0,1,0,17.026a2.993,2.993,0,0,1,.3-1.315,4.509,4.509,0,0,1,3.334-2.027,17.419,17.419,0,0,1,2.434-.345c.747-.066,1.507-.1,2.258-.1s1.509.033,2.258.1l.479.04a17.913,17.913,0,0,1,1.949.3c1.8.37,2.86,1.019,3.345,2.042a3.03,3.03,0,0,1,0,2.605c-.482,1.018-1.573,1.682-3.333,2.028l-.487.1a16.348,16.348,0,0,1-1.956.255c-.744.064-1.5.1-2.245.1C7.869,20.811,7.4,20.8,6.946,20.773Zm-.763-5.931a16.112,16.112,0,0,0-2.244.317,3.345,3.345,0,0,0-2.294,1.216,1.474,1.474,0,0,0-.145.648,1.53,1.53,0,0,0,.144.654c.265.549,1.067.967,2.318,1.212l.367.078a16.133,16.133,0,0,0,1.95.259,2.074,2.074,0,0,0,.3.035l.409.007c.448.024.9.037,1.348.037.705,0,1.421-.03,2.129-.091a14.923,14.923,0,0,0,2.249-.328l.234-.05c1.1-.25,1.814-.649,2.053-1.153a1.522,1.522,0,0,0,0-1.31c-.255-.537-1.049-.957-2.3-1.215a16.2,16.2,0,0,0-2.239-.316l-.013,0c-.7-.062-1.416-.093-2.12-.093S6.9,14.78,6.183,14.842ZM2.8,5.552A5.528,5.528,0,1,1,8.328,11.1,5.546,5.546,0,0,1,2.8,5.552Zm1.5,0A4.028,4.028,0,1,0,8.328,1.507,4.041,4.041,0,0,0,4.3,5.552Z" fill="#ba071c"/>
  </g>
</svg>
