<svg xmlns="http://www.w3.org/2000/svg" width="24.536" height="24.536" viewBox="0 0 24.536 24.536">
  <path id="Icon_feather-message-circle" data-name="Icon feather-message-circle" d="M27.535,15.378a10.724,10.724,0,0,1-1.152,4.863,10.878,10.878,0,0,1-9.726,6.015A10.724,10.724,0,0,1,11.795,25.1L4.5,27.535l2.432-7.295A10.724,10.724,0,0,1,5.78,15.378a10.878,10.878,0,0,1,6.015-9.726A10.724,10.724,0,0,1,16.658,4.5h.64A10.852,10.852,0,0,1,27.535,14.738Z" transform="translate(-3.75 -3.75)" fill="none" stroke="#ba071c" stroke-linecap="round" stroke-linejoin="round" stroke-width="1.5"/>
</svg>
