<svg xmlns="http://www.w3.org/2000/svg" width="19.77" height="20.811" viewBox="0 0 19.77 20.811">
  <path id="Home" d="M6.9,16.353a1.476,1.476,0,0,1,1.481-1.471h2.991a1.487,1.487,0,0,1,1.047.431,1.465,1.465,0,0,1,.434,1.04v3.182a1.262,1.262,0,0,0,.371.9,1.281,1.281,0,0,0,.906.374h2.04a3.6,3.6,0,0,0,2.542-1.04A3.548,3.548,0,0,0,19.77,17.25V8.186a2.573,2.573,0,0,0-.932-1.979L11.9.7A3.223,3.223,0,0,0,7.789.777L1.006,6.206A2.574,2.574,0,0,0,0,8.186v9.055a3.583,3.583,0,0,0,3.6,3.57H5.59a1.281,1.281,0,0,0,1.286-1.267l.028-.009Z" transform="translate(0 0)" fill="#ba071c"/>
</svg>
