<svg id="Iconly_Light-outline_Notification" data-name="Iconly/Light-outline/Notification" xmlns="http://www.w3.org/2000/svg" width="24.973" height="24.973" viewBox="0 0 24.973 24.973">
  <rect id="Iconly_Light-outline_Notification_Background_" data-name="Iconly/Light-outline/Notification (Background)" width="24.973" height="24.973" fill="none"/>
  <g id="Notification" transform="translate(3.307 2.081)">
    <path id="Notification-2" data-name="Notification" d="M8.371,20.785a3.635,3.635,0,0,1-2.425-1.36.732.732,0,0,1,.113-1.02.712.712,0,0,1,1.009.115,2.2,2.2,0,0,0,1.47.822,2.226,2.226,0,0,0,1.641-.464,2.023,2.023,0,0,0,.371-.361.711.711,0,0,1,1.008-.111.732.732,0,0,1,.11,1.021,3.461,3.461,0,0,1-.621.608,3.637,3.637,0,0,1-2.676.749Zm-4.2-4.3A5.1,5.1,0,0,1,.965,14.9,4.224,4.224,0,0,1,0,12.135v-.247A4.261,4.261,0,0,1,.7,9.76l.069-.09a4.015,4.015,0,0,0,.966-1.894l-.016.064,0-.556.012-.62c.009-.273.024-.519.044-.752A6.223,6.223,0,0,1,4.094,1.693,7.419,7.419,0,0,1,8.808,0h.075A7.428,7.428,0,0,1,13.6,1.692a6.266,6.266,0,0,1,2.328,4.224c.018.206.026.394.029.673v.7c0,.114,0,.216,0,.32l.009.2.047.195A4.057,4.057,0,0,0,16.77,9.5l.156.184.065.082a4.206,4.206,0,0,1,.7,2.159v.42a4.228,4.228,0,0,1-1,2.6,4.98,4.98,0,0,1-3.17,1.547,43.322,43.322,0,0,1-4.675.254A43.285,43.285,0,0,1,4.176,16.489ZM3.2,6.042c-.01.124-.021.263-.03.439l-.016.485-.007.957-.015.147A5.468,5.468,0,0,1,1.866,10.6h0l-.007.008h0l-.081.134a2.782,2.782,0,0,0-.327.977l-.018.2v.228a2.767,2.767,0,0,0,.6,1.785A3.634,3.634,0,0,0,4.32,15.045a42.052,42.052,0,0,0,4.516.244,42.233,42.233,0,0,0,4.536-.246,3.564,3.564,0,0,0,2.245-1.072,2.77,2.77,0,0,0,.638-1.845v-.17a2.687,2.687,0,0,0-.452-1.377l.016.026-.143-.169A5.515,5.515,0,0,1,14.621,8.36l-.067-.287-.013-.1c-.01-.135-.016-.259-.02-.417l0-.941c0-.235-.008-.4-.022-.569-.243-2.535-2.761-4.6-5.613-4.6H8.808C5.953,1.452,3.44,3.511,3.2,6.042Z" fill="#b8b8b8"/>
  </g>
</svg>
