<svg id="Icons_Light_Search" data-name="Icons / Light / Search" xmlns="http://www.w3.org/2000/svg" width="24.973" height="24.973" viewBox="0 0 24.973 24.973">
  <rect id="Icons_Light_Search_Background_" data-name="Icons / Light / Search (Background)" width="24.973" height="24.973" fill="none"/>
  <g id="Search" transform="translate(1.79 2.081)">
    <path id="Search-2" data-name="Search" d="M19.583,20.663,19.5,20.59l-3.253-3.174A10.091,10.091,0,0,1,10,19.561,9.9,9.9,0,0,1,0,9.78,9.9,9.9,0,0,1,10,0,9.9,9.9,0,0,1,20,9.78a9.628,9.628,0,0,1-2.634,6.608l3.217,3.137a.743.743,0,0,1,0,1.065.782.782,0,0,1-1,.074ZM1.541,9.78A8.378,8.378,0,0,0,10,18.053,8.378,8.378,0,0,0,18.462,9.78,8.378,8.378,0,0,0,10,1.506,8.378,8.378,0,0,0,1.541,9.78Z" fill="#ba071c"/>
  </g>
</svg>
